<?xml version="1.0" encoding="UTF-8" standalone="no"?>
<!-- Created with Inkscape (http://www.inkscape.org/) -->

<svg
   width="46.800568mm"
   height="47.116619mm"
   viewBox="0 0 46.800567 47.116619"
   version="1.1"
   id="svg5"
   xml:space="preserve"
   inkscape:export-filename="lightMode.svg"
   inkscape:export-xdpi="122.67"
   inkscape:export-ydpi="122.67"
   xmlns:inkscape="http://www.inkscape.org/namespaces/inkscape"
   xmlns:sodipodi="http://sodipodi.sourceforge.net/DTD/sodipodi-0.dtd"
   xmlns="http://www.w3.org/2000/svg"
   xmlns:svg="http://www.w3.org/2000/svg"><sodipodi:namedview
     id="namedview7"
     pagecolor="#505050"
     bordercolor="#eeeeee"
     borderopacity="1"
     inkscape:showpageshadow="0"
     inkscape:pageopacity="0"
     inkscape:pagecheckerboard="0"
     inkscape:deskcolor="#505050"
     inkscape:document-units="mm"
     showgrid="false" /><defs
     id="defs2" /><g
     inkscape:label="Layer 1"
     inkscape:groupmode="layer"
     id="layer1"
     transform="translate(-145.7046,-105.96503)"><path
       style="fill:#cfd5d9;fill-opacity:1;stroke-width:1"
       d="m 166.25734,152.79372 c -9.82453,-1.11965 -18.0699,-8.72543 -20.16831,-18.60384 -0.5135,-2.41738 -0.5123,-7.16597 0.002,-9.56511 1.48151,-6.90538 6.30675,-13.12613 12.60565,-16.25134 1.8592,-0.92245 5.03035,-1.92871 6.98976,-2.21798 l 1.28987,-0.19042 -0.57636,0.80942 c -0.93763,1.31678 -2.1556,4.2249 -2.55134,6.09175 -0.48054,2.26685 -0.47158,6.07287 0.0192,8.1543 1.96652,8.34049 9.22375,14.09105 17.78294,14.09105 3.22914,0 5.57387,-0.55342 8.44072,-1.99222 1.27794,-0.64136 2.35915,-1.1305 2.40268,-1.08696 0.0435,0.0435 -0.0457,0.78393 -0.19833,1.64532 -1.46565,8.27192 -7.65877,15.38681 -15.72839,18.06937 -2.00059,0.66505 -6.64144,1.44525 -7.86093,1.32155 -0.18763,-0.019 -1.28994,-0.14274 -2.44956,-0.27489 z"
       id="path907" /></g></svg>
