<?xml version="1.0" encoding="UTF-8" standalone="no"?>
<!-- Generator: Adobe Illustrator 26.0.3, SVG Export Plug-In . SVG Version: 6.00 Build 0)  -->

<svg
   version="1.0"
   id="katman_1"
   x="0px"
   y="0px"
   viewBox="0 0 237.39999 237.39999"
   xml:space="preserve"
   sodipodi:docname="FacebookIcon.svg"
   width="237.39999"
   height="237.39999"
   inkscape:export-filename="InstagramIcon.svg"
   inkscape:export-xdpi="122.67"
   inkscape:export-ydpi="122.67"
   inkscape:version="1.2.2 (b0a8486541, 2022-12-01)"
   xmlns:inkscape="http://www.inkscape.org/namespaces/inkscape"
   xmlns:sodipodi="http://sodipodi.sourceforge.net/DTD/sodipodi-0.dtd"
   xmlns="http://www.w3.org/2000/svg"
   xmlns:svg="http://www.w3.org/2000/svg"><defs
   id="defs1913" /><sodipodi:namedview
   id="namedview1911"
   pagecolor="#505050"
   bordercolor="#eeeeee"
   borderopacity="1"
   inkscape:showpageshadow="0"
   inkscape:pageopacity="0"
   inkscape:pagecheckerboard="0"
   inkscape:deskcolor="#505050"
   showgrid="false"
   inkscape:zoom="2.8735386"
   inkscape:cx="130.15312"
   inkscape:cy="125.28107"
   inkscape:window-width="1920"
   inkscape:window-height="1053"
   inkscape:window-x="3840"
   inkscape:window-y="0"
   inkscape:window-maximized="1"
   inkscape:current-layer="katman_1" />
<style
   type="text/css"
   id="style1900">
	.st0{fill:#010202;}
</style>



<path
   class="st0"
   d="M 118.7,0 C 53.1,0 0,53.1 0,118.7 c 0,65.6 53.1,118.7 118.7,118.7 65.6,0 118.7,-53.1 118.7,-118.7 C 237.4,53.1 184.2,0 118.7,0 Z m 34.9,72 c 0,0 -11.8,0 -16.5,0 -5.8,0 -7,2.4 -7,8.4 0,5 0,14.5 0,14.5 h 23.5 l -2.3,25.5 H 130 v 76.3 H 99.5 v -76 H 83.6 V 94.8 h 15.9 c 0,0 0,-3.7 0,-20.4 0,-19.1 10.3,-29.1 32.9,-29.1 3.7,0 21.1,0 21.1,0 z"
   id="path1908"
   style="mix-blend-mode:normal;fill:#cfd5d9;fill-opacity:1" />
</svg>
