<svg width="91" height="91" viewBox="0 0 91 91" fill="none" xmlns="http://www.w3.org/2000/svg">
<circle cx="45.5" cy="45.5" r="45.5" fill="#111E2C"/>
<path d="M9.61914 50.699V30.3981L10.865 30.0064C11.5502 29.791 19.6178 27.2264 28.7929 24.3074L45.4751 19L62.3474 24.3584C71.6272 27.3054 79.7056 29.8687 80.2994 30.0544L81.3791 30.3922V50.6961V71H45.4991H9.61914V50.699ZM19.8073 65.5404C19.8073 62.7384 19.7653 60.5711 19.7122 60.63C19.6599 60.688 17.5918 62.8968 15.1165 65.5385C12.6411 68.1802 10.6158 70.3898 10.6158 70.4488C10.6158 70.5162 12.3267 70.5561 15.2116 70.5561H19.8073V65.5404ZM30.1902 64.2587L30.2188 58.0167H26.1878H22.1568L21.2589 59.0023L20.361 59.9879V65.2731V70.5584L25.2613 70.5295L30.1616 70.5006L30.1902 64.2587ZM39.7406 64.2864V58.0167H35.2003H30.6599V64.2125C30.6599 67.6201 30.6931 70.4415 30.7337 70.4821C30.7743 70.5228 32.8175 70.5561 35.2741 70.5561H39.7406V64.2864ZM50.1235 64.2587L50.1521 58.0167H45.2232H40.2943V64.2876V70.5584L45.1946 70.5295L50.0949 70.5006L50.1235 64.2587ZM60.4491 64.2864V58.0167H55.5212H50.5932V64.2125C50.5932 67.6201 50.6264 70.4415 50.667 70.4821C50.7076 70.5228 52.9252 70.5561 55.595 70.5561H60.4491V64.2864ZM70.7431 65.3129L70.7382 60.0697L69.7577 59.0432L68.7772 58.0167H64.89H61.0028V64.2864V70.5561H65.8754H70.748L70.7431 65.3129ZM80.3825 70.4513C80.3825 70.3526 71.4374 60.7909 71.345 60.7909C71.3212 60.7909 71.3017 62.9881 71.3017 65.6735V70.5561H75.8421C78.6164 70.5561 80.3825 70.5154 80.3825 70.4513ZM27.5144 44.8349C37.0218 31.1203 44.7663 19.8853 44.7245 19.8682C44.6646 19.8436 14.4227 29.4138 10.9204 30.5656L10.0621 30.8478V50.3136C10.0621 61.0198 10.0995 69.7774 10.1452 69.775C10.1908 69.7726 18.007 58.5496 27.5144 44.8349ZM80.9362 50.3093V30.8392L80.0779 30.5674C79.6059 30.4179 71.8022 27.9404 62.7364 25.0618C53.6705 22.1833 46.2334 19.8478 46.2095 19.8718C46.1503 19.931 80.7482 69.7673 80.8531 69.774C80.8988 69.777 80.9362 61.0178 80.9362 50.3093ZM45.4444 32.554C45.5049 32.5541 52.974 40.4381 62.0422 50.0742C71.1103 59.7103 78.5106 67.5398 78.4872 67.473C78.4155 67.2691 45.5594 19.9671 45.485 19.9607C45.4197 19.9551 12.4919 67.3651 12.4008 67.5958C12.3776 67.6546 19.7782 59.7943 28.8464 50.1284C37.9147 40.4625 45.3838 32.554 45.4444 32.554ZM30.2169 53.5133C30.2169 51.3416 30.1772 49.5813 30.1286 49.6017C30.015 49.6493 22.7973 57.3333 22.7973 57.4066C22.7973 57.437 24.4667 57.4619 26.5071 57.4619H30.2169V53.5133ZM39.7406 51.0812V44.7006H37.2035H34.6663L32.6656 46.8367L30.6648 48.9729L30.6623 53.2174L30.6598 57.4619H35.2002H39.7406L39.7406 51.0812ZM50.1503 51.0812V44.7006H45.2223H40.2943V51.0812V57.4619H45.2223H50.1503V51.0812ZM60.4491 53.3129V49.164L58.3728 46.9424L56.2964 44.7208L53.4448 44.7107L50.5932 44.7006V51.0812V57.4619H55.5212H60.4491V53.3129ZM67.8006 56.9903C67.555 56.7309 66.0921 55.1704 64.5496 53.5225C63.0072 51.8747 61.5782 50.3525 61.374 50.1399L61.0029 49.7533V53.6076V57.4619H64.625H68.2471L67.8006 56.9903ZM39.7406 41.7599C39.7406 40.4477 39.724 39.3741 39.7036 39.3741C39.6832 39.3741 38.6591 40.4477 37.4279 41.7599L35.1892 44.1457H37.4649H39.7406V41.7599ZM50.1503 41.1904V38.2351L48.9989 37.0014C48.3656 36.3228 47.3058 35.1981 46.6437 34.502L45.4399 33.2364L42.8671 35.9647L40.2943 38.693V41.4194V44.1457H45.2223H50.1503V41.1904ZM54.8381 43.2106C52.1554 40.318 50.7499 38.8384 50.6763 38.8294C50.6306 38.8238 50.5932 40.0177 50.5932 41.4825V44.1457H53.1493H55.7054L54.8381 43.2106Z" fill="#CFD5D9" stroke="#CFD5D9"/>
<path d="M10.1363 50.2731V30.8669L10.8731 30.6252C13.5949 29.7326 38.6367 21.7979 43.0226 20.4384C43.8261 20.1894 44.6868 19.7968 44.7035 19.8135C44.7201 19.8302 44.342 20.3497 44.0949 20.7206C41.6667 24.3649 10.4408 69.3819 10.0791 69.7621C10.036 69.8074 10.1363 61.8653 10.1363 50.2731Z" fill="#CFD5D9" stroke="#CFD5D9" stroke-width="0.999999"/>
<path d="M79.385 67.6259C73.5958 59.3752 47.1277 21.2397 46.3678 20.0477C46.2908 19.927 46.1805 19.8843 46.2219 19.8843C46.3714 19.8843 53.2603 22.0978 72.5902 28.2297C76.599 29.5013 80.103 30.6149 80.3768 30.7042L80.8747 30.8666L80.8653 49.9975C80.8601 60.5195 80.8764 69.5659 80.8487 69.6898C80.8023 69.8973 80.6482 69.4262 79.385 67.6259Z" fill="#CFD5D9" stroke="#CFD5D9" stroke-width="0.999999"/>
</svg>
