<?xml version="1.0" encoding="UTF-8" standalone="no"?>
<!-- Created with Inkscape (http://www.inkscape.org/) -->

<svg
   width="52.65192mm"
   height="52.808609mm"
   viewBox="0 0 52.65192 52.808609"
   version="1.1"
   id="svg9975"
   xml:space="preserve"
   xmlns:inkscape="http://www.inkscape.org/namespaces/inkscape"
   xmlns:sodipodi="http://sodipodi.sourceforge.net/DTD/sodipodi-0.dtd"
   xmlns="http://www.w3.org/2000/svg"
   xmlns:svg="http://www.w3.org/2000/svg"><sodipodi:namedview
     id="namedview9977"
     pagecolor="#505050"
     bordercolor="#eeeeee"
     borderopacity="1"
     inkscape:showpageshadow="0"
     inkscape:pageopacity="0"
     inkscape:pagecheckerboard="0"
     inkscape:deskcolor="#505050"
     inkscape:document-units="mm"
     showgrid="false" /><defs
     id="defs9972" /><g
     inkscape:label="Layer 1"
     inkscape:groupmode="layer"
     id="layer1"
     transform="translate(-150.70233,-119.41558)"><path
       style="fill:#cfd5d9;fill-opacity:1;stroke-width:1"
       d="m 175.06133,172.17126 c -8.05355,-0.98442 -13.96057,-4.11852 -18.56662,-9.85094 -6.5228,-8.11787 -7.62584,-19.1705 -2.85509,-28.6084 3.83743,-7.59154 11.33354,-12.90295 19.83421,-14.05366 12.23023,-1.65557 23.86019,5.2888 28.27379,16.88258 1.84574,4.84846 2.12966,11.44582 0.70376,16.35338 -2.80769,9.66337 -10.63693,16.95851 -20.11401,18.74186 -2.38099,0.44804 -5.88211,0.70556 -7.27604,0.53518 z m 3.91315,-3.77573 c 2.42579,-1.25036 4.91427,-5.22354 6.26892,-10.00914 0.23717,-0.83789 0.49204,-1.73178 0.56637,-1.98644 0.1268,-0.43446 -0.41269,-0.46303 -8.74623,-0.46303 -4.88476,0 -8.88137,0.0385 -8.88137,0.0857 0,0.34075 1.38074,4.58716 1.86992,5.75088 0.77127,1.83474 2.59722,4.67481 3.58449,5.57525 1.75369,1.59946 3.57337,1.95632 5.3379,1.04681 z m -9.4694,-0.90407 c 0,-0.0479 -0.53364,-1.02356 -1.18588,-2.16808 -1.07922,-1.89379 -2.75403,-6.38108 -3.18239,-8.52656 l -0.17169,-0.8599 h -4.3446 c -2.38953,0 -4.34349,0.0893 -4.34212,0.19844 0.001,0.10914 0.34612,0.79375 0.76612,1.52136 1.19006,2.06163 3.68146,4.85211 5.71369,6.39961 2.34193,1.78331 6.74687,4.02607 6.74687,3.43513 z m 17.30618,-0.67649 c 3.69215,-1.6741 8.03221,-5.42226 9.86692,-8.52125 1.51588,-2.56047 1.78988,-2.3568 -3.17055,-2.3568 h -4.36449 l -0.18495,0.98586 c -0.40712,2.17013 -1.58292,5.37151 -2.91762,7.94383 -0.77393,1.49159 -1.29607,2.71198 -1.1603,2.71198 0.13577,0 1.00471,-0.34363 1.93099,-0.76362 z m -22.59784,-15.90513 c -0.19343,-2.51451 -0.15278,-8.92859 0.0658,-10.3849 l 0.18864,-1.25677 h -4.86781 -4.8678 l -0.30993,1.38907 c -0.72286,3.23974 -0.58655,9.20065 0.26139,11.43091 l 0.26083,0.68602 4.70057,-0.0723 4.70058,-0.0723 z m 22.27862,1.25677 c 0.3799,-0.67142 0.49728,-10.89246 0.13977,-12.17083 l -0.20347,-0.72761 h -9.37568 -9.37568 l -0.21043,0.99219 c -0.32725,1.54302 -0.2209,10.9273 0.13343,11.77396 l 0.30451,0.7276 h 9.12536 9.12536 z m 12.87823,0.1273 c 0.85534,-1.59821 1.03724,-8.88453 0.29382,-11.76897 l -0.32391,-1.25677 h -4.89169 c -4.5341,0 -4.87881,0.0336 -4.71552,0.4591 0.30476,0.79417 0.45795,8.30561 0.21609,10.59528 -0.12728,1.20495 -0.17549,2.24675 -0.10714,2.3151 0.0684,0.0683 2.18383,0.12427 4.70107,0.12427 4.10668,0 4.60254,-0.0481 4.82728,-0.46801 z m -33.66062,-19.37574 c 0.48661,-1.70916 1.47918,-4.26029 2.26472,-5.82083 0.76913,-1.52797 1.43926,-2.87089 1.48918,-2.98427 0.16249,-0.36905 -2.15814,0.65364 -4.30996,1.89937 -1.27614,0.73878 -2.9452,2.04914 -4.24648,3.33386 -2.16446,2.13691 -4.8209,5.96128 -4.50067,6.47943 0.1135,0.18365 1.60184,0.25553 4.3052,0.20792 l 4.13172,-0.0728 z m 19.99595,2.38125 c -0.12755,-1.18233 -1.39667,-4.84699 -2.38235,-6.87916 -1.22704,-2.52979 -3.97954,-5.4238 -5.41466,-5.69303 -0.52459,-0.0984 -1.31228,-0.1002 -1.75043,-0.004 -1.7506,0.3845 -4.60855,3.70983 -5.93241,6.90259 -1.14989,2.77318 -1.92958,5.47597 -1.80947,6.2725 0.0168,0.11113 3.92977,0.17066 8.69557,0.13229 l 8.66511,-0.0698 z m 12.1099,0.45701 c 0,-0.18522 -0.44649,-1.10007 -0.99219,-2.033 -1.21823,-2.0827 -4.64542,-5.62689 -6.90901,-7.14487 -1.72269,-1.15526 -5.02858,-2.77922 -5.2358,-2.572 -0.0634,0.0634 0.30778,0.8146 0.82495,1.66922 1.15257,1.90461 2.31024,4.84491 3.07,7.7973 0.31467,1.22277 0.62488,2.31252 0.68937,2.42166 0.0645,0.10914 2.01522,0.19843 4.33496,0.19843 3.238,0 4.21772,-0.0782 4.21772,-0.33674 z"
       id="path9991" /></g></svg>
