<?xml version="1.0" encoding="UTF-8" standalone="no"?>
<!-- Created with Inkscape (http://www.inkscape.org/) -->

<svg
   width="52.718876mm"
   height="52.602634mm"
   viewBox="0 0 52.718875 52.602634"
   version="1.1"
   id="svg9975"
   xml:space="preserve"
   inkscape:export-filename="language.svg"
   inkscape:export-xdpi="122.67"
   inkscape:export-ydpi="122.67"
   sodipodi:docname="lightMode.svg"
   inkscape:version="1.2.2 (b0a8486541, 2022-12-01)"
   xmlns:inkscape="http://www.inkscape.org/namespaces/inkscape"
   xmlns:sodipodi="http://sodipodi.sourceforge.net/DTD/sodipodi-0.dtd"
   xmlns="http://www.w3.org/2000/svg"
   xmlns:svg="http://www.w3.org/2000/svg"><sodipodi:namedview
     id="namedview9977"
     pagecolor="#505050"
     bordercolor="#eeeeee"
     borderopacity="1"
     inkscape:showpageshadow="0"
     inkscape:pageopacity="0"
     inkscape:pagecheckerboard="0"
     inkscape:deskcolor="#505050"
     inkscape:document-units="mm"
     showgrid="false"
     inkscape:zoom="1.3269492"
     inkscape:cx="111.15724"
     inkscape:cy="93.447439"
     inkscape:window-width="939"
     inkscape:window-height="1027"
     inkscape:window-x="4807"
     inkscape:window-y="12"
     inkscape:window-maximized="1"
     inkscape:current-layer="layer1" /><defs
     id="defs9972" /><g
     inkscape:label="Layer 1"
     inkscape:groupmode="layer"
     id="layer1"
     transform="translate(-266.95453,-164.65935)"><path
       style="fill:#cfd5d9;stroke-width:1;fill-opacity:1"
       d="m 292.41666,216.8773 c -0.57224,-0.40081 -0.58804,-0.54563 -0.58804,-5.39156 0,-5.40582 0.0614,-5.63979 1.47965,-5.63979 1.44406,0 1.56306,0.43056 1.56306,5.65522 0,4.70052 -0.01,4.78446 -0.62462,5.28222 -0.75734,0.61325 -1.06597,0.62909 -1.83005,0.0939 z m -17.47232,-7.17738 c -0.64395,-0.25762 -0.87413,-1.37227 -0.45197,-2.18864 0.46603,-0.9012 6.58389,-6.62627 7.08089,-6.62627 0.71041,0 1.52412,0.8227 1.51957,1.53636 -0.003,0.54805 -0.7519,1.49197 -3.24114,4.08779 -3.24402,3.38291 -3.69464,3.67591 -4.90735,3.19076 z m 31.79593,-3.19251 c -2.1518,-2.23391 -3.25292,-3.57454 -3.25972,-3.96875 -0.0117,-0.67934 0.84736,-1.65365 1.45806,-1.65365 0.50354,0 6.10972,5.13027 6.9322,6.34371 0.73208,1.08008 0.74347,1.44563 0.0661,2.12296 -1.10514,1.10514 -1.71274,0.77259 -5.19668,-2.84427 z m -15.65875,-4.318 c -6.02744,-1.18616 -10.18187,-7.46144 -8.92629,-13.48321 0.77901,-3.73614 2.97793,-6.54568 6.46811,-8.26424 1.64077,-0.80792 1.90174,-0.85591 4.65457,-0.85591 2.72928,0 3.03044,0.0541 4.69522,0.84269 3.15106,1.49273 5.29175,3.95124 6.3216,7.26015 2.51571,8.08299 -4.83456,16.14937 -13.21321,14.50052 z m 5.09513,-3.64227 c 1.75844,-0.59308 3.87904,-2.56235 4.67086,-4.33754 0.47367,-1.06191 0.62196,-1.86753 0.62196,-3.37876 0,-2.62359 -0.74112,-4.3136 -2.66121,-6.06846 -1.83676,-1.67869 -3.47177,-2.24231 -6.02159,-2.07576 -4.95764,0.32383 -8.2874,4.53336 -7.53206,9.52213 0.38922,2.57064 2.02129,4.7826 4.38044,5.93682 2.41429,1.18121 3.95044,1.2755 6.5416,0.40157 z m -28.80309,-6.54457 c -0.64455,-0.64455 -0.52708,-1.88035 0.22563,-2.37354 0.53828,-0.35269 1.39262,-0.40685 5.31351,-0.33683 4.26542,0.0762 4.70476,0.12814 5.04714,0.59703 0.51488,0.70511 0.47001,1.56739 -0.10882,2.09123 -0.70426,0.63734 -9.84294,0.65663 -10.47746,0.0221 z m 41.39235,0.0236 c -0.5277,-0.63584 -0.40113,-1.77107 0.25687,-2.30388 0.51676,-0.41845 1.13143,-0.47855 4.86171,-0.4754 2.3486,0.002 4.53057,0.0735 4.84884,0.1588 0.77233,0.20712 1.19147,1.42106 0.77754,2.25195 -0.31111,0.6245 -0.34393,0.62879 -5.36165,0.70008 -4.26099,0.0605 -5.10084,0.009 -5.38331,-0.33155 z m -30.82237,-14.35511 c -1.81541,-1.70809 -3.43668,-3.43379 -3.60283,-3.83489 -0.43693,-1.05485 0.25178,-2.05358 1.42057,-2.06006 0.74926,-0.004 1.25064,0.40644 4.09495,3.35359 2.25282,2.33427 3.24114,3.54591 3.24114,3.97348 0,0.69301 -0.85289,1.6735 -1.45571,1.6735 -0.21855,0 -1.88271,-1.39753 -3.69812,-3.10562 z m 26.58508,2.90391 c -0.57304,-0.17868 -1.05923,-0.8727 -1.05256,-1.50251 0.004,-0.33148 1.27237,-1.86654 3.24114,-3.9211 2.8413,-2.9651 3.33937,-3.37599 4.08918,-3.37343 1.19941,0.004 1.85895,0.9999 1.3985,2.11151 -0.32231,0.77812 -6.12459,6.40012 -6.88251,6.66866 -0.21828,0.0774 -0.57547,0.0849 -0.79375,0.0169 z m -12.26212,-5.04465 c -0.37327,-0.41246 -0.43788,-1.18573 -0.43788,-5.24109 0,-5.38444 0.10371,-5.74943 1.59315,-5.60682 1.39858,0.13392 1.57344,0.75386 1.57795,5.59447 0.004,4.05222 -0.15624,5.04112 -0.8956,5.53481 -0.51974,0.34704 -1.38942,0.21388 -1.83762,-0.28137 z"
       id="path10042" /></g></svg>
