<?xml version="1.0" encoding="UTF-8" standalone="no"?>
<!-- Created with Inkscape (http://www.inkscape.org/) -->

<svg
   width="59.796432mm"
   height="59.795826mm"
   viewBox="0 0 59.796432 59.795826"
   version="1.1"
   id="svg5"
   xml:space="preserve"
   xmlns:inkscape="http://www.inkscape.org/namespaces/inkscape"
   xmlns:sodipodi="http://sodipodi.sourceforge.net/DTD/sodipodi-0.dtd"
   xmlns="http://www.w3.org/2000/svg"
   xmlns:svg="http://www.w3.org/2000/svg"><sodipodi:namedview
     id="namedview7"
     pagecolor="#505050"
     bordercolor="#eeeeee"
     borderopacity="1"
     inkscape:showpageshadow="0"
     inkscape:pageopacity="0"
     inkscape:pagecheckerboard="0"
     inkscape:deskcolor="#505050"
     inkscape:document-units="mm"
     showgrid="false" /><defs
     id="defs2" /><g
     inkscape:label="Layer 1"
     inkscape:groupmode="layer"
     id="layer1"
     transform="translate(-114.11859,-83.579094)"><path
       style="fill:#cfd5d9;fill-opacity:1;stroke-width:1"
       d="m 142.96808,142.86315 c -0.15064,-0.28147 -0.27389,-1.76975 -0.27389,-3.30729 0,-2.44274 0.0668,-2.8623 0.52916,-3.32469 0.29105,-0.29104 0.64823,-0.52916 0.79375,-0.52916 0.14552,0 0.50271,0.23812 0.79375,0.52916 0.46239,0.46239 0.52917,0.88195 0.52917,3.32469 0,3.20537 -0.21258,3.81906 -1.32292,3.81906 -0.49556,0 -0.87392,-0.18458 -1.04902,-0.51177 z m -20.11764,-8.21948 c -0.29105,-0.29104 -0.52917,-0.67075 -0.52917,-0.8438 0,-0.17305 1.04904,-1.36368 2.33119,-2.64584 1.28216,-1.28215 2.47278,-2.33119 2.64584,-2.33119 0.56957,0 1.33992,0.99527 1.19609,1.54529 -0.158,0.60417 -4.37005,4.80471 -4.81788,4.80471 -0.1633,0 -0.53503,-0.23812 -0.82607,-0.52917 z m 38.99796,-1.63028 c -2.53412,-2.4735 -2.82022,-3.01502 -1.9606,-3.7111 0.32565,-0.2637 0.71251,-0.47945 0.85969,-0.47945 0.42691,0 4.6367,4.22399 4.78857,4.80471 0.14168,0.54181 -0.62352,1.54529 -1.17837,1.54529 -0.1633,0 -1.29248,-0.97175 -2.50929,-2.15945 z m -21.20456,-6.71603 c -4.79012,-1.28987 -8.53731,-5.16569 -9.58103,-9.90993 -1.27708,-5.80496 1.52944,-11.87611 6.74578,-14.59268 5.34745,-2.784839 11.54499,-1.787 15.68611,2.52554 4.02315,4.1897 4.89027,10.1233 2.24286,15.34771 -0.92521,1.82582 -3.49243,4.42835 -5.33926,5.4127 -2.95559,1.57532 -6.69188,2.04134 -9.75446,1.21666 z m -26.06163,-11.78321 c -0.64155,-0.37366 -0.60976,-1.73374 0.0487,-2.08616 0.28147,-0.15064 1.76975,-0.2739 3.30729,-0.2739 2.44274,0 2.86229,0.0668 3.32468,0.52917 0.29105,0.29104 0.52917,0.64823 0.52917,0.79375 0,0.14552 -0.23812,0.50271 -0.52917,0.79375 -0.46471,0.46472 -0.8756,0.52819 -3.37343,0.52112 -1.56435,-0.004 -3.05263,-0.1294 -3.3073,-0.27773 z m 52.18906,-0.24339 c -0.29104,-0.29104 -0.52917,-0.64823 -0.52917,-0.79375 0,-0.14552 0.23813,-0.50271 0.52917,-0.79375 0.46239,-0.46239 0.88194,-0.52917 3.32469,-0.52917 3.20536,0 3.81906,0.21259 3.81906,1.32292 0,1.11033 -0.6137,1.32292 -3.81906,1.32292 -2.44275,0 -2.8623,-0.0668 -3.32469,-0.52917 z M 124.65246,95.799984 c -1.28215,-1.282158 -2.33119,-2.472782 -2.33119,-2.645834 0,-0.173052 0.23812,-0.552764 0.52917,-0.843806 0.29104,-0.291042 0.67075,-0.529167 0.8438,-0.529167 0.17305,0 1.36723,1.052584 2.65372,2.339074 1.82463,1.824634 2.30011,2.450184 2.16193,2.844272 -0.19612,0.559306 -0.85319,1.166654 -1.26216,1.166654 -0.14524,0 -1.31311,-1.049036 -2.59527,-2.331193 z m 35.23964,1.802027 c -0.29104,-0.291042 -0.52916,-0.661903 -0.52916,-0.824135 0,-0.344295 3.8817,-4.397314 4.56406,-4.765488 0.71274,-0.384568 1.52135,0.175687 1.52135,1.054083 0,0.576099 -0.48512,1.211026 -2.21662,2.901108 -1.21915,1.189979 -2.35025,2.163598 -2.51355,2.163598 -0.1633,0 -0.53503,-0.238125 -0.82608,-0.529166 z m -16.66875,-6.879167 c -0.46239,-0.462389 -0.52916,-0.881944 -0.52916,-3.324686 0,-3.205366 0.21258,-3.819064 1.32291,-3.819064 1.11034,0 1.32292,0.613698 1.32292,3.819064 0,2.442742 -0.0668,2.862297 -0.52917,3.324686 -0.29104,0.291042 -0.64823,0.529167 -0.79375,0.529167 -0.14552,0 -0.5027,-0.238125 -0.79375,-0.529167 z"
       id="path802" /></g></svg>
